<mxfile host="65bd71144e">
    <diagram id="fKMG3Co34WzKz8C4T_wa" name="Page-1">
        <mxGraphModel dx="2196" dy="1580" grid="1" gridSize="10" guides="1" tooltips="1" connect="1" arrows="1" fold="1" page="1" pageScale="1" pageWidth="3300" pageHeight="4681" background="#ffffff" math="0" shadow="0">
            <root>
                <mxCell id="0"/>
                <mxCell id="1" parent="0"/>
                <mxCell id="4" value="Contacto" style="swimlane;fontStyle=1;align=center;verticalAlign=top;childLayout=stackLayout;horizontal=1;startSize=26;horizontalStack=0;resizeParent=1;resizeParentMax=0;resizeLast=0;collapsible=1;marginBottom=0;fontColor=#ffffff;fillColor=#0050ef;strokeColor=#001DBC;fontSize=14;" parent="1" vertex="1">
                    <mxGeometry x="914" y="487" width="169" height="261" as="geometry">
                        <mxRectangle x="210" y="300" width="80" height="26" as="alternateBounds"/>
                    </mxGeometry>
                </mxCell>
                <mxCell id="5" value="- n : N&#10;- fn : String&#10;- org : String&#10;- title : String&#10;- tel : LinkedList&lt;Telefono&gt;&#10;- adr : LinkedList&lt;Direccion&gt;&#10;- email : LinkedList&lt;Email&gt;&#10;- int id;&#10;- complete : boolean " style="text;fillColor=none;align=left;verticalAlign=top;spacingLeft=4;spacingRight=4;overflow=hidden;rotatable=0;points=[[0,0.5],[1,0.5]];portConstraint=eastwest;fontColor=#000000;strokeColor=#0000FF;fontSize=14;" parent="4" vertex="1">
                    <mxGeometry y="26" width="169" height="163" as="geometry"/>
                </mxCell>
                <mxCell id="6" value="+ hashcode ( ) : int&#10;+ equals ( ) : boolean&#10;+ toString ( ) : void" style="text;strokeColor=none;align=left;verticalAlign=top;spacingLeft=4;spacingRight=4;overflow=hidden;rotatable=0;points=[[0,0.5],[1,0.5]];portConstraint=eastwest;fontColor=#000000;fontSize=14;" parent="4" vertex="1">
                    <mxGeometry y="189" width="169" height="72" as="geometry"/>
                </mxCell>
                <mxCell id="7" value="Email" style="swimlane;fontStyle=1;align=center;verticalAlign=top;childLayout=stackLayout;horizontal=1;startSize=26;horizontalStack=0;resizeParent=1;resizeParentMax=0;resizeLast=0;collapsible=1;marginBottom=0;fontColor=#ffffff;fillColor=#0050ef;strokeColor=#001DBC;fontSize=14;" parent="1" vertex="1">
                    <mxGeometry x="979" y="879" width="142" height="140" as="geometry"/>
                </mxCell>
                <mxCell id="8" value="- email : String&#10;- type : String" style="text;fillColor=none;align=left;verticalAlign=top;spacingLeft=4;spacingRight=4;overflow=hidden;rotatable=0;points=[[0,0.5],[1,0.5]];portConstraint=eastwest;fontColor=#000000;strokeColor=#0000FF;fontSize=14;" parent="7" vertex="1">
                    <mxGeometry y="26" width="142" height="44" as="geometry"/>
                </mxCell>
                <mxCell id="9" value="+ hashcode ( ) : int&#10;+ equals ( ) : boolean&#10;+ toString ( ) : void" style="text;strokeColor=none;fillColor=none;align=left;verticalAlign=top;spacingLeft=4;spacingRight=4;overflow=hidden;rotatable=0;points=[[0,0.5],[1,0.5]];portConstraint=eastwest;fontColor=#000000;fontSize=14;" parent="7" vertex="1">
                    <mxGeometry y="70" width="142" height="70" as="geometry"/>
                </mxCell>
                <mxCell id="10" value="Telefono" style="swimlane;fontStyle=1;align=center;verticalAlign=top;childLayout=stackLayout;horizontal=1;startSize=26;horizontalStack=0;resizeParent=1;resizeParentMax=0;resizeLast=0;collapsible=1;marginBottom=0;fontColor=#ffffff;fillColor=#0050ef;strokeColor=#001DBC;fontSize=14;" parent="1" vertex="1">
                    <mxGeometry x="760" y="867" width="135" height="134" as="geometry"/>
                </mxCell>
                <mxCell id="11" value="- number : String&#10;- type : String" style="text;fillColor=none;align=left;verticalAlign=top;spacingLeft=4;spacingRight=4;overflow=hidden;rotatable=0;points=[[0,0.5],[1,0.5]];portConstraint=eastwest;fontColor=#000000;strokeColor=#0000FF;fontSize=14;" parent="10" vertex="1">
                    <mxGeometry y="26" width="135" height="45" as="geometry"/>
                </mxCell>
                <mxCell id="12" value="+ hashcode ( ) : int&#10;+ equals ( ) : boolean&#10;+ toString ( ) : void" style="text;strokeColor=none;fillColor=none;align=left;verticalAlign=top;spacingLeft=4;spacingRight=4;overflow=hidden;rotatable=0;points=[[0,0.5],[1,0.5]];portConstraint=eastwest;fontColor=#000000;fontSize=14;" parent="10" vertex="1">
                    <mxGeometry y="71" width="135" height="63" as="geometry"/>
                </mxCell>
                <mxCell id="13" value="Direccion" style="swimlane;fontStyle=1;align=center;verticalAlign=top;childLayout=stackLayout;horizontal=1;startSize=26;horizontalStack=0;resizeParent=1;resizeParentMax=0;resizeLast=0;collapsible=1;marginBottom=0;fontColor=#ffffff;fillColor=#0050ef;strokeColor=#001DBC;fontSize=14;" parent="1" vertex="1">
                    <mxGeometry x="1203" y="824" width="138" height="255" as="geometry"/>
                </mxCell>
                <mxCell id="14" value="- typo : String&#10;- campo 1 : String&#10;- campo 2 : String&#10;- calle : String&#10;- ciudad : String &#10;- estado : String&#10;- cp : int &#10;- pais : String&#10;webos" style="text;fillColor=none;align=left;verticalAlign=top;spacingLeft=4;spacingRight=4;overflow=hidden;rotatable=0;points=[[0,0.5],[1,0.5]];portConstraint=eastwest;fontColor=#000000;strokeColor=#0000FF;fontSize=14;" parent="13" vertex="1">
                    <mxGeometry y="26" width="138" height="155" as="geometry"/>
                </mxCell>
                <mxCell id="15" value="+ hashcode ( ) : int&#10;+ equals ( ) : boolean&#10;+ toString ( ) : void" style="text;fillColor=none;align=left;verticalAlign=top;spacingLeft=4;spacingRight=4;overflow=hidden;rotatable=0;points=[[0,0.5],[1,0.5]];portConstraint=eastwest;fontColor=#000000;strokeColor=#0000FF;fontSize=14;" parent="13" vertex="1">
                    <mxGeometry y="181" width="138" height="74" as="geometry"/>
                </mxCell>
                <mxCell id="16" value="GestorArchivo" style="swimlane;fontStyle=1;align=center;verticalAlign=top;childLayout=stackLayout;horizontal=1;startSize=26;horizontalStack=0;resizeParent=1;resizeParentMax=0;resizeLast=0;collapsible=1;marginBottom=0;fontColor=#ffffff;fillColor=#0050ef;strokeColor=#001DBC;fontSize=14;" parent="1" vertex="1">
                    <mxGeometry x="616" y="492" width="203" height="102" as="geometry"/>
                </mxCell>
                <mxCell id="17" value="- lcc : LinkedList&lt;Contacto&gt;" style="text;fillColor=none;align=left;verticalAlign=top;spacingLeft=4;spacingRight=4;overflow=hidden;rotatable=0;points=[[0,0.5],[1,0.5]];portConstraint=eastwest;fontColor=#000000;strokeColor=#0000FF;fontSize=14;" parent="16" vertex="1">
                    <mxGeometry y="26" width="203" height="26" as="geometry"/>
                </mxCell>
                <mxCell id="18" value="+ loadFile( ): LinkedList&lt;Contacto&gt;&#10;+ exportFile( Contacto ) : void" style="text;strokeColor=none;fillColor=none;align=left;verticalAlign=top;spacingLeft=4;spacingRight=4;overflow=hidden;rotatable=0;points=[[0,0.5],[1,0.5]];portConstraint=eastwest;fontColor=#000000;fontSize=14;" parent="16" vertex="1">
                    <mxGeometry y="52" width="203" height="50" as="geometry"/>
                </mxCell>
                <mxCell id="19" value="1" style="rounded=0;orthogonalLoop=1;jettySize=auto;html=1;entryX=0.5;entryY=0;entryDx=0;entryDy=0;endArrow=none;endFill=0;fillColor=#0050ef;strokeColor=#001DBC;startArrow=diamond;startFill=1;strokeWidth=3;fontColor=#000000;labelBackgroundColor=none;fontSize=14;" parent="1" source="22" target="16" edge="1">
                    <mxGeometry x="-0.3184" y="11" relative="1" as="geometry">
                        <mxPoint y="1" as="offset"/>
                    </mxGeometry>
                </mxCell>
                <mxCell id="20" style="rounded=0;orthogonalLoop=1;jettySize=auto;html=1;entryX=0.5;entryY=0;entryDx=0;entryDy=0;endArrow=none;endFill=0;fillColor=#0050ef;strokeColor=#001DBC;startArrow=diamond;startFill=1;strokeWidth=3;fontSize=14;" parent="1" source="22" target="25" edge="1">
                    <mxGeometry relative="1" as="geometry"/>
                </mxCell>
                <mxCell id="21" value="1" style="edgeLabel;html=1;align=center;verticalAlign=middle;resizable=0;points=[];fontSize=14;fontColor=#000000;labelBackgroundColor=none;" parent="20" vertex="1" connectable="0">
                    <mxGeometry x="-0.1248" y="-3" relative="1" as="geometry">
                        <mxPoint x="-7" y="9" as="offset"/>
                    </mxGeometry>
                </mxCell>
                <mxCell id="22" value="SmartScheduler" style="swimlane;fontStyle=1;align=center;verticalAlign=top;childLayout=stackLayout;horizontal=1;startSize=26;horizontalStack=0;resizeParent=1;resizeParentMax=0;resizeLast=0;collapsible=1;marginBottom=0;fontColor=#ffffff;labelBackgroundColor=none;fillColor=#a20025;strokeColor=#6F0000;fontSize=14;" parent="1" vertex="1">
                    <mxGeometry x="661" y="237" width="218" height="161" as="geometry"/>
                </mxCell>
                <mxCell id="23" value="- gestorA : GestorArchivo&#10;- gestorC : GestroContacto&#10;- gestorDAO : GestorDAO&#10;- gestorAn : GestorAnalisis" style="text;fillColor=none;align=left;verticalAlign=top;spacingLeft=4;spacingRight=4;overflow=hidden;rotatable=0;points=[[0,0.5],[1,0.5]];portConstraint=eastwest;fontColor=#000000;strokeColor=#660000;fontSize=14;" parent="22" vertex="1">
                    <mxGeometry y="26" width="218" height="84" as="geometry"/>
                </mxCell>
                <mxCell id="24" value="+ main(args : String[ ] ) : void&#10;+ start(ventanaPrincipal : Stage) : void" style="text;fillColor=none;align=left;verticalAlign=top;spacingLeft=4;spacingRight=4;overflow=hidden;rotatable=0;points=[[0,0.5],[1,0.5]];portConstraint=eastwest;fontColor=#000000;strokeColor=#660000;fontSize=14;" parent="22" vertex="1">
                    <mxGeometry y="110" width="218" height="51" as="geometry"/>
                </mxCell>
                <mxCell id="25" value="GestorContacto" style="swimlane;fontStyle=1;align=center;verticalAlign=top;childLayout=stackLayout;horizontal=1;startSize=26;horizontalStack=0;resizeParent=1;resizeParentMax=0;resizeLast=0;collapsible=1;marginBottom=0;fontColor=#ffffff;fillColor=#0050ef;strokeColor=#001DBC;fontSize=14;" parent="1" vertex="1">
                    <mxGeometry x="1260" y="541" width="333" height="247" as="geometry"/>
                </mxCell>
                <mxCell id="26" value="- id : int&#10;- listaContactos : LinkedList&lt;Contacto&gt;&#10;- listaDuplicados : LinkedList&lt;Contacto&gt;&#10;- listaIncompletos : LinkedList&lt;Contacto&gt;&#10;- listaCompletos: LinkedList-Contacto&gt;&#10;- listaSinFoto : LinkedList&lt;Contacto&gt;" style="text;align=left;verticalAlign=top;spacingLeft=4;spacingRight=4;overflow=hidden;rotatable=0;points=[[0,0.5],[1,0.5]];portConstraint=eastwest;fontColor=#000000;strokeColor=#0000FF;fontSize=14;" parent="25" vertex="1">
                    <mxGeometry y="26" width="333" height="123" as="geometry"/>
                </mxCell>
                <mxCell id="27" value="+ cContact( c : Contacto) : boolean&#10;+ eContact( c : Contacto) : boolean&#10;+ dContact( c : Contacto ) : boolean&#10;+ searchDup(LinkedList&lt;Contacto&gt; t ) : boolean&#10;+ searchInc( LinkedList&lt;Contacto&gt; t) : boolean" style="text;strokeColor=none;fillColor=none;align=left;verticalAlign=top;spacingLeft=4;spacingRight=4;overflow=hidden;rotatable=0;points=[[0,0.5],[1,0.5]];portConstraint=eastwest;fontColor=#000000;fontSize=14;" parent="25" vertex="1">
                    <mxGeometry y="149" width="333" height="98" as="geometry"/>
                </mxCell>
                <mxCell id="28" value="&lt;span style=&quot;background-color: rgb(255, 255, 255); font-size: 14px;&quot;&gt;0...*&lt;/span&gt;" style="endArrow=none;html=1;endSize=12;startArrow=diamond;startSize=14;startFill=1;align=left;verticalAlign=bottom;fontColor=#000000;strokeColor=#001DBC;entryX=0.431;entryY=0;entryDx=0;entryDy=0;entryPerimeter=0;endFill=0;fillColor=#0050ef;strokeWidth=3;rounded=0;exitX=0.16;exitY=1.118;exitDx=0;exitDy=0;exitPerimeter=0;fontSize=14;" parent="1" source="6" target="10" edge="1">
                    <mxGeometry x="-0.1747" y="18" relative="1" as="geometry">
                        <mxPoint x="935" y="731" as="sourcePoint"/>
                        <mxPoint x="710" y="797" as="targetPoint"/>
                        <mxPoint as="offset"/>
                    </mxGeometry>
                </mxCell>
                <mxCell id="29" value="&lt;span style=&quot;background-color: rgb(255, 255, 255); font-size: 14px;&quot;&gt;0...*&lt;/span&gt;" style="endArrow=none;html=1;endSize=12;startArrow=diamond;startSize=14;startFill=1;align=left;verticalAlign=bottom;fontColor=#000000;strokeColor=#001DBC;endFill=0;exitX=0.504;exitY=0.996;exitDx=0;exitDy=0;exitPerimeter=0;entryX=0.433;entryY=0.01;entryDx=0;entryDy=0;entryPerimeter=0;fillColor=#0050ef;strokeWidth=3;rounded=0;fontSize=14;" parent="1" source="6" target="7" edge="1">
                    <mxGeometry x="0.2728" relative="1" as="geometry">
                        <mxPoint x="767" y="793" as="sourcePoint"/>
                        <mxPoint x="772" y="828" as="targetPoint"/>
                        <mxPoint as="offset"/>
                    </mxGeometry>
                </mxCell>
                <mxCell id="30" value="&lt;span style=&quot;background-color: rgb(255, 255, 255); font-size: 14px;&quot;&gt;0...*&lt;/span&gt;" style="endArrow=none;html=1;endSize=12;startArrow=diamond;startSize=14;startFill=1;align=left;verticalAlign=bottom;fontColor=#000000;strokeColor=#001DBC;exitX=0.734;exitY=1.02;exitDx=0;exitDy=0;exitPerimeter=0;endFill=0;fillColor=#0050ef;strokeWidth=3;rounded=0;fontSize=14;entryX=0.5;entryY=0;entryDx=0;entryDy=0;" parent="1" source="6" target="13" edge="1">
                    <mxGeometry x="-0.1469" y="-16" relative="1" as="geometry">
                        <mxPoint x="865" y="791" as="sourcePoint"/>
                        <mxPoint x="1272" y="809" as="targetPoint"/>
                        <mxPoint y="1" as="offset"/>
                    </mxGeometry>
                </mxCell>
                <mxCell id="31" value="" style="endArrow=diamond;startArrow=none;endFill=1;startFill=0;html=1;fillColor=#0050ef;strokeColor=#001DBC;entryX=1.013;entryY=0.1;entryDx=0;entryDy=0;entryPerimeter=0;exitX=0;exitY=0.5;exitDx=0;exitDy=0;strokeWidth=3;rounded=0;fontSize=14;" parent="1" source="5" target="18" edge="1">
                    <mxGeometry width="160" relative="1" as="geometry">
                        <mxPoint x="898" y="590" as="sourcePoint"/>
                        <mxPoint x="851" y="550" as="targetPoint"/>
                    </mxGeometry>
                </mxCell>
                <mxCell id="32" value="&lt;span style=&quot;color: rgb(0, 0, 0); text-align: left; background-color: rgb(255, 255, 255); font-size: 14px;&quot;&gt;0...*&lt;/span&gt;" style="edgeLabel;html=1;align=center;verticalAlign=middle;resizable=0;points=[];fontSize=14;" parent="31" vertex="1" connectable="0">
                    <mxGeometry x="-0.4296" relative="1" as="geometry">
                        <mxPoint as="offset"/>
                    </mxGeometry>
                </mxCell>
                <mxCell id="33" value="GestorDB" style="swimlane;fontStyle=1;align=center;verticalAlign=top;childLayout=stackLayout;horizontal=1;startSize=26;horizontalStack=0;resizeParent=1;resizeParentMax=0;resizeLast=0;collapsible=1;marginBottom=0;fillColor=#008a00;strokeColor=#005700;fontColor=#ffffff;fontSize=14;" parent="1" vertex="1">
                    <mxGeometry x="2470" y="663" width="217" height="124" as="geometry"/>
                </mxCell>
                <mxCell id="34" value="- conn : Connection" style="text;fillColor=none;align=left;verticalAlign=top;spacingLeft=4;spacingRight=4;overflow=hidden;rotatable=0;points=[[0,0.5],[1,0.5]];portConstraint=eastwest;fontColor=#000000;strokeColor=#006600;fontSize=14;" parent="33" vertex="1">
                    <mxGeometry y="26" width="217" height="36" as="geometry"/>
                </mxCell>
                <mxCell id="35" value="+ conecta( ) : boolean&#10;+ disconecta( ) : boolean&#10;+ getConexion( ) : Connection" style="text;fillColor=none;align=left;verticalAlign=top;spacingLeft=4;spacingRight=4;overflow=hidden;rotatable=0;points=[[0,0.5],[1,0.5]];portConstraint=eastwest;fontColor=#000000;strokeColor=#006600;fontSize=14;" parent="33" vertex="1">
                    <mxGeometry y="62" width="217" height="62" as="geometry"/>
                </mxCell>
                <mxCell id="36" value="N" style="swimlane;fontStyle=1;align=center;verticalAlign=top;childLayout=stackLayout;horizontal=1;startSize=26;horizontalStack=0;resizeParent=1;resizeParentMax=0;resizeLast=0;collapsible=1;marginBottom=0;fillColor=#0050ef;strokeColor=#001DBC;fontColor=#ffffff;fontSize=14;" parent="1" vertex="1">
                    <mxGeometry x="587" y="668" width="138" height="183" as="geometry"/>
                </mxCell>
                <mxCell id="37" value="- ln : String&#10;- n : String&#10;- nk : String&#10;-  t : String" style="text;fillColor=none;align=left;verticalAlign=top;spacingLeft=4;spacingRight=4;overflow=hidden;rotatable=0;points=[[0,0.5],[1,0.5]];portConstraint=eastwest;fontColor=#000000;strokeColor=#0000FF;fontSize=14;" parent="36" vertex="1">
                    <mxGeometry y="26" width="138" height="88" as="geometry"/>
                </mxCell>
                <mxCell id="38" value="+ hashcode ( ) : int&#10;+ equals ( ) : boolean&#10;+ toString ( ) : void" style="text;fillColor=none;align=left;verticalAlign=top;spacingLeft=4;spacingRight=4;overflow=hidden;rotatable=0;points=[[0,0.5],[1,0.5]];portConstraint=eastwest;fontColor=#000000;fontSize=14;" parent="36" vertex="1">
                    <mxGeometry y="114" width="138" height="69" as="geometry"/>
                </mxCell>
                <mxCell id="39" style="rounded=0;orthogonalLoop=1;jettySize=auto;html=1;entryX=0;entryY=0.5;entryDx=0;entryDy=0;fontColor=#000000;fillColor=#0050ef;strokeColor=#001DBC;endArrow=diamond;endFill=1;endSize=12;startSize=14;strokeWidth=3;fontSize=14;" parent="1" source="37" target="6" edge="1">
                    <mxGeometry relative="1" as="geometry"/>
                </mxCell>
                <mxCell id="40" value="1" style="text;html=1;align=center;verticalAlign=middle;resizable=0;points=[];autosize=1;strokeColor=none;fontColor=#000000;fontSize=14;" parent="1" vertex="1">
                    <mxGeometry x="737" y="719" width="18" height="21" as="geometry"/>
                </mxCell>
                <mxCell id="41" style="rounded=0;orthogonalLoop=1;jettySize=auto;html=1;startArrow=none;startFill=0;endArrow=diamond;endFill=1;strokeColor=#005700;strokeWidth=3;fillColor=#008a00;fontSize=14;" parent="1" source="43" target="64" edge="1">
                    <mxGeometry relative="1" as="geometry"/>
                </mxCell>
                <mxCell id="42" value="1" style="rounded=0;orthogonalLoop=1;jettySize=auto;html=1;entryX=0.5;entryY=0;entryDx=0;entryDy=0;startArrow=diamond;startFill=1;endArrow=none;endFill=0;strokeColor=#005700;strokeWidth=3;labelBackgroundColor=none;fontColor=#000000;fillColor=#008a00;fontSize=14;" parent="1" source="43" target="33" edge="1">
                    <mxGeometry x="0.0766" y="10" relative="1" as="geometry">
                        <mxPoint as="offset"/>
                    </mxGeometry>
                </mxCell>
                <mxCell id="43" value="MySQLContactoDAO" style="swimlane;fontStyle=1;align=center;verticalAlign=top;childLayout=stackLayout;horizontal=1;startSize=26;horizontalStack=0;resizeParent=1;resizeParentMax=0;resizeLast=0;collapsible=1;marginBottom=0;fillColor=#008a00;strokeColor=#005700;fontColor=#ffffff;fontSize=14;" parent="1" vertex="1">
                    <mxGeometry x="2107" y="154" width="340" height="237" as="geometry"/>
                </mxCell>
                <mxCell id="44" value="- conector : GestorDB" style="text;fillColor=none;align=left;verticalAlign=top;spacingLeft=4;spacingRight=4;overflow=hidden;rotatable=0;points=[[0,0.5],[1,0.5]];portConstraint=eastwest;fontColor=#000000;strokeColor=#006600;fontSize=14;" parent="43" vertex="1">
                    <mxGeometry y="26" width="340" height="26" as="geometry"/>
                </mxCell>
                <mxCell id="45" value="+ insertar (a : Contacto) : void&#10;+ obtener (s : String) : Contacto&#10;+ modificar (a : Contacto) : void&#10;+ eliminar (a : Contacto) : void&#10;+ obtenerTodos( ) : LinkedList&lt;Contacto&gt;&#10;+ obtenerUltimoid ( ) : int&#10;+ obtenerIncompletos( ) : LinkedList&lt;Contacto&gt;&#10;+ obtenerCompletos( ) : LinkedList&lt;Contacto&gt;&#10;+ obtenerSinFoto( ) : LinkedList&lt;Contacto&gt;&#10;+ convertir (rs :Resultset) : Contacto&#10;" style="text;fillColor=none;align=left;verticalAlign=top;spacingLeft=4;spacingRight=4;overflow=hidden;rotatable=0;points=[[0,0.5],[1,0.5]];portConstraint=eastwest;fontColor=#000000;strokeColor=#006600;fontSize=14;" parent="43" vertex="1">
                    <mxGeometry y="52" width="340" height="185" as="geometry"/>
                </mxCell>
                <mxCell id="46" style="rounded=0;orthogonalLoop=1;jettySize=auto;html=1;startArrow=none;startFill=0;endArrow=diamond;endFill=1;strokeColor=#005700;strokeWidth=3;fillColor=#008a00;fontSize=14;" parent="1" source="48" target="64" edge="1">
                    <mxGeometry relative="1" as="geometry"/>
                </mxCell>
                <mxCell id="47" value="1" style="rounded=0;orthogonalLoop=1;jettySize=auto;html=1;startArrow=diamond;startFill=1;endArrow=none;endFill=0;strokeColor=#005700;strokeWidth=3;entryX=0;entryY=0.5;entryDx=0;entryDy=0;fontColor=#000000;labelBackgroundColor=none;fillColor=#008a00;fontSize=14;" parent="1" source="48" target="34" edge="1">
                    <mxGeometry x="-0.0068" y="9" relative="1" as="geometry">
                        <mxPoint x="2413" y="691" as="targetPoint"/>
                        <mxPoint as="offset"/>
                    </mxGeometry>
                </mxCell>
                <mxCell id="48" value="MySQLDireccionDAO" style="swimlane;fontStyle=1;align=center;verticalAlign=top;childLayout=stackLayout;horizontal=1;startSize=26;horizontalStack=0;resizeParent=1;resizeParentMax=0;resizeLast=0;collapsible=1;marginBottom=0;fillColor=#008a00;strokeColor=#005700;fontColor=#ffffff;fontSize=14;" parent="1" vertex="1">
                    <mxGeometry x="2067" y="456" width="306" height="194" as="geometry"/>
                </mxCell>
                <mxCell id="49" value="- conector : GestorDB" style="text;fillColor=none;align=left;verticalAlign=top;spacingLeft=4;spacingRight=4;overflow=hidden;rotatable=0;points=[[0,0.5],[1,0.5]];portConstraint=eastwest;fontColor=#000000;strokeColor=#006600;fontSize=14;" parent="48" vertex="1">
                    <mxGeometry y="26" width="306" height="26" as="geometry"/>
                </mxCell>
                <mxCell id="50" value="+ insertar ( Direccion a, int id) : void&#10;+ obtener ( String s, int id) : Direccion&#10;+ modificar ( Direccion a, int id) : void&#10;+ eliminar ( String a, int id) : void&#10;+ obtenerTodos(int a ) : LinkedList&lt;Direccion&gt;&#10;+ convertir ( Resultset rs) : Direccion&#10;+ eliminaTodos( int id ) : void&#10;" style="text;fillColor=none;align=left;verticalAlign=top;spacingLeft=4;spacingRight=4;overflow=hidden;rotatable=0;points=[[0,0.5],[1,0.5]];portConstraint=eastwest;fontColor=#000000;strokeColor=#006600;fontSize=14;" parent="48" vertex="1">
                    <mxGeometry y="52" width="306" height="142" as="geometry"/>
                </mxCell>
                <mxCell id="51" style="rounded=0;orthogonalLoop=1;jettySize=auto;html=1;startArrow=none;startFill=0;endArrow=diamond;endFill=1;strokeColor=#005700;strokeWidth=3;fillColor=#008a00;fontSize=14;" parent="1" source="54" target="64" edge="1">
                    <mxGeometry relative="1" as="geometry"/>
                </mxCell>
                <mxCell id="52" style="rounded=0;orthogonalLoop=1;jettySize=auto;html=1;startArrow=diamond;startFill=1;endArrow=none;endFill=0;strokeColor=#005700;strokeWidth=3;fillColor=#008a00;fontSize=14;" parent="1" source="54" target="33" edge="1">
                    <mxGeometry relative="1" as="geometry"/>
                </mxCell>
                <mxCell id="53" value="1" style="edgeLabel;html=1;align=center;verticalAlign=middle;resizable=0;points=[];labelBackgroundColor=#FFFFFF;fontColor=#000000;fontSize=14;" parent="52" vertex="1" connectable="0">
                    <mxGeometry x="-0.3391" y="2" relative="1" as="geometry">
                        <mxPoint x="44" y="-11" as="offset"/>
                    </mxGeometry>
                </mxCell>
                <mxCell id="54" value="MySQLEmailDAO" style="swimlane;fontStyle=1;align=center;verticalAlign=top;childLayout=stackLayout;horizontal=1;startSize=26;horizontalStack=0;resizeParent=1;resizeParentMax=0;resizeLast=0;collapsible=1;marginBottom=0;fillColor=#008a00;strokeColor=#005700;fontColor=#ffffff;fontSize=14;" parent="1" vertex="1">
                    <mxGeometry x="1873" y="903" width="263" height="197" as="geometry"/>
                </mxCell>
                <mxCell id="55" value="- conector : GestorDB" style="text;fillColor=none;align=left;verticalAlign=top;spacingLeft=4;spacingRight=4;overflow=hidden;rotatable=0;points=[[0,0.5],[1,0.5]];portConstraint=eastwest;fontColor=#000000;strokeColor=#006600;fontSize=14;" parent="54" vertex="1">
                    <mxGeometry y="26" width="263" height="26" as="geometry"/>
                </mxCell>
                <mxCell id="56" value="+ insertar ( Email a, int id) : void&#10;+ obtener ( String s, int id) : Email&#10;+ modificar ( Email a, int id) : void&#10;+ eliminar ( String a, int id) : void&#10;+ obtenerTodos(int a ) : LinkedList&lt;Email&gt;&#10;+ convertir ( Resultset rs) : Email&#10;+ eliminaTodos( int id ) : void&#10;" style="text;fillColor=none;align=left;verticalAlign=top;spacingLeft=4;spacingRight=4;overflow=hidden;rotatable=0;points=[[0,0.5],[1,0.5]];portConstraint=eastwest;fontColor=#000000;strokeColor=#006600;fontSize=14;" parent="54" vertex="1">
                    <mxGeometry y="52" width="263" height="145" as="geometry"/>
                </mxCell>
                <mxCell id="57" style="rounded=0;orthogonalLoop=1;jettySize=auto;html=1;startArrow=none;startFill=0;endArrow=diamond;endFill=1;strokeColor=#005700;strokeWidth=3;fillColor=#008a00;fontSize=14;" parent="1" source="59" target="64" edge="1">
                    <mxGeometry relative="1" as="geometry"/>
                </mxCell>
                <mxCell id="58" value="1" style="rounded=0;orthogonalLoop=1;jettySize=auto;html=1;entryX=-0.012;entryY=1;entryDx=0;entryDy=0;startArrow=diamond;startFill=1;endArrow=none;endFill=0;strokeColor=#005700;strokeWidth=3;entryPerimeter=0;labelBackgroundColor=none;fontColor=#000000;fillColor=#008a00;fontSize=14;" parent="1" source="59" target="34" edge="1">
                    <mxGeometry x="0.0391" y="-12" relative="1" as="geometry">
                        <mxPoint as="offset"/>
                    </mxGeometry>
                </mxCell>
                <mxCell id="59" value="MySQLTelefonoDAO" style="swimlane;fontStyle=1;align=center;verticalAlign=top;childLayout=stackLayout;horizontal=1;startSize=26;horizontalStack=0;resizeParent=1;resizeParentMax=0;resizeLast=0;collapsible=1;marginBottom=0;fillColor=#008a00;strokeColor=#005700;fontColor=#ffffff;fontSize=14;" parent="1" vertex="1">
                    <mxGeometry x="1992" y="679" width="263" height="185" as="geometry"/>
                </mxCell>
                <mxCell id="60" value="- conector : GestorDB" style="text;strokeColor=none;fillColor=none;align=left;verticalAlign=top;spacingLeft=4;spacingRight=4;overflow=hidden;rotatable=0;points=[[0,0.5],[1,0.5]];portConstraint=eastwest;fontColor=#000000;fontSize=14;" parent="59" vertex="1">
                    <mxGeometry y="26" width="263" height="26" as="geometry"/>
                </mxCell>
                <mxCell id="61" value="+ insertar ( Email a, int id) : void&#10;+ obtener ( String s, int id) : Email&#10;+ modificar ( Email a, int id) : void&#10;+ eliminar ( String a, int id) : void&#10;+ obtenerTodos(int a ) : LinkedList&lt;Email&gt;&#10;+ convertir ( Resultset rs) : Email&#10;+ eliminaTodos( int id ) : void&#10;" style="text;fillColor=none;align=left;verticalAlign=top;spacingLeft=4;spacingRight=4;overflow=hidden;rotatable=0;points=[[0,0.5],[1,0.5]];portConstraint=eastwest;fontColor=#000000;strokeColor=#006600;fontSize=14;" parent="59" vertex="1">
                    <mxGeometry y="52" width="263" height="133" as="geometry"/>
                </mxCell>
                <mxCell id="62" style="rounded=0;orthogonalLoop=1;jettySize=auto;html=1;startArrow=none;startFill=0;endArrow=diamond;endFill=1;strokeColor=#005700;strokeWidth=3;fillColor=#008a00;entryX=1.016;entryY=0.109;entryDx=0;entryDy=0;entryPerimeter=0;fontSize=14;" parent="1" source="64" target="22" edge="1">
                    <mxGeometry relative="1" as="geometry"/>
                </mxCell>
                <mxCell id="63" value="1" style="edgeLabel;html=1;align=center;verticalAlign=middle;resizable=0;points=[];fontSize=14;fontColor=#000000;labelBackgroundColor=none;" parent="62" vertex="1" connectable="0">
                    <mxGeometry x="0.2025" y="-4" relative="1" as="geometry">
                        <mxPoint x="-1" y="-9" as="offset"/>
                    </mxGeometry>
                </mxCell>
                <mxCell id="64" value="GestorDAO" style="swimlane;fontStyle=1;align=center;verticalAlign=top;childLayout=stackLayout;horizontal=1;startSize=26;horizontalStack=0;resizeParent=1;resizeParentMax=0;resizeLast=0;collapsible=1;marginBottom=0;fillColor=#008a00;strokeColor=#005700;fontColor=#ffffff;fontSize=14;" parent="1" vertex="1">
                    <mxGeometry x="1655" y="122.5" width="326" height="300" as="geometry"/>
                </mxCell>
                <mxCell id="65" value="- cdao :MySQLContactoDAO &#10;- tdao : MySQLTelefonoDAO&#10;-ddao : MySQLDireccionDAO&#10;-edao : MySQLEmailDAO" style="text;fillColor=none;align=left;verticalAlign=top;spacingLeft=4;spacingRight=4;overflow=hidden;rotatable=0;points=[[0,0.5],[1,0.5]];portConstraint=eastwest;fontColor=#000000;strokeColor=#006600;fontSize=14;" parent="64" vertex="1">
                    <mxGeometry y="26" width="326" height="76" as="geometry"/>
                </mxCell>
                <mxCell id="66" value="+ createC ( Contacto a) : void&#10;+ deleteC (Contacto a) : void&#10;+ guardaTodos (LinkedList&lt;Contacto&gt; ) : void&#10;+ recuperaUno (String s) : Contacto&#10;+ recuperaLista ( ) : LinkedList&lt;Contacto&gt;&#10;+ actualizaContacto (Contacto a) : void&#10;+ obtieneCuantos( ) : int &#10;+ obtieneIncompletos( ) : LinkedList&lt;Contacto&gt;&#10;+ obtieneCompletos( ): LinkedList&lt;Contacto&gt;&#10;+ obtieneSinFoto( ) : LinkedList&lt;Contacto&gt;&#10;" style="text;fillColor=none;align=left;verticalAlign=top;spacingLeft=4;spacingRight=4;overflow=hidden;rotatable=0;points=[[0,0.5],[1,0.5]];portConstraint=eastwest;fontColor=#000000;strokeColor=#006600;fontSize=14;" parent="64" vertex="1">
                    <mxGeometry y="102" width="326" height="198" as="geometry"/>
                </mxCell>
                <mxCell id="67" style="rounded=0;orthogonalLoop=1;jettySize=auto;html=1;entryX=0;entryY=0.5;entryDx=0;entryDy=0;fontColor=#000000;strokeColor=#0000FF;endArrow=diamond;endFill=1;strokeWidth=3;fontSize=14;" parent="1" source="5" target="26" edge="1">
                    <mxGeometry relative="1" as="geometry"/>
                </mxCell>
                <mxCell id="68" value="&lt;span style=&quot;color: rgb(0, 0, 0); text-align: left; background-color: rgb(255, 255, 255); font-size: 14px;&quot;&gt;0...*&lt;/span&gt;" style="edgeLabel;html=1;align=center;verticalAlign=middle;resizable=0;points=[];fontSize=14;" parent="67" vertex="1" connectable="0">
                    <mxGeometry x="-0.3509" y="1" relative="1" as="geometry">
                        <mxPoint x="-1" y="-1" as="offset"/>
                    </mxGeometry>
                </mxCell>
                <mxCell id="69" value="1" style="edgeLabel;html=1;align=center;verticalAlign=middle;resizable=0;points=[];labelBackgroundColor=#FFFFFF;fontColor=#000000;fontSize=14;" parent="1" vertex="1" connectable="0">
                    <mxGeometry x="2028" y="927.1379310344826" as="geometry">
                        <mxPoint x="-101" y="-374" as="offset"/>
                    </mxGeometry>
                </mxCell>
                <mxCell id="70" value="1" style="edgeLabel;html=1;align=center;verticalAlign=middle;resizable=0;points=[];labelBackgroundColor=#FFFFFF;fontColor=#000000;fontSize=14;" parent="1" vertex="1" connectable="0">
                    <mxGeometry x="1900" y="911.9979310344826" as="geometry">
                        <mxPoint x="-47" y="-291" as="offset"/>
                    </mxGeometry>
                </mxCell>
                <mxCell id="71" value="1" style="edgeLabel;html=1;align=center;verticalAlign=middle;resizable=0;points=[];labelBackgroundColor=#FFFFFF;fontColor=#000000;fontSize=14;" parent="1" vertex="1" connectable="0">
                    <mxGeometry x="1978" y="866.9979310344826" as="geometry">
                        <mxPoint x="8" y="-402" as="offset"/>
                    </mxGeometry>
                </mxCell>
                <mxCell id="72" value="1" style="edgeLabel;html=1;align=center;verticalAlign=middle;resizable=0;points=[];labelBackgroundColor=#FFFFFF;fontColor=#000000;fontSize=14;" parent="1" vertex="1" connectable="0">
                    <mxGeometry x="1852" y="948.9979310344826" as="geometry">
                        <mxPoint x="161" y="-587" as="offset"/>
                    </mxGeometry>
                </mxCell>
                <mxCell id="73" value="GestorAnalisis" style="swimlane;fontStyle=1;align=center;verticalAlign=top;childLayout=stackLayout;horizontal=1;startSize=26;horizontalStack=0;resizeParent=1;resizeParentMax=0;resizeLast=0;collapsible=1;marginBottom=0;fillColor=#0050ef;strokeColor=#001DBC;fontColor=#ffffff;fontSize=14;" parent="1" vertex="1">
                    <mxGeometry x="1247" y="288" width="378" height="178" as="geometry"/>
                </mxCell>
                <mxCell id="74" value="" style="text;fillColor=none;align=left;verticalAlign=top;spacingLeft=4;spacingRight=4;overflow=hidden;rotatable=0;points=[[0,0.5],[1,0.5]];portConstraint=eastwest;strokeColor=#0000FF;fontColor=#000000;fontSize=14;" parent="73" vertex="1">
                    <mxGeometry y="26" width="378" height="20" as="geometry"/>
                </mxCell>
                <mxCell id="75" value="+ analizaN (  n : N ) : boolena&#10;+ analizaFN ( fn :String ) : boolean&#10;+ analizaORG  (org : String ) : boolean&#10;+ analizaTel  (tel : LinkedList&lt;Telefono&gt; ) : boolean&#10;+ analizaAdr (dir : LinkedList&lt;Direccion&gt; ) : boolean&#10;+ analizaEmail  (correos : LinkedList&lt;Email&gt; ) : boolean&#10;&#10;&#10;" style="text;strokeColor=none;fillColor=none;align=left;verticalAlign=top;spacingLeft=4;spacingRight=4;overflow=hidden;rotatable=0;points=[[0,0.5],[1,0.5]];portConstraint=eastwest;fontColor=#000000;fontSize=14;" parent="73" vertex="1">
                    <mxGeometry y="46" width="378" height="132" as="geometry"/>
                </mxCell>
                <mxCell id="76" style="rounded=0;orthogonalLoop=1;jettySize=auto;html=1;startArrow=none;startFill=0;endArrow=diamond;endFill=1;strokeColor=#001DBC;strokeWidth=3;entryX=1;entryY=0.321;entryDx=0;entryDy=0;entryPerimeter=0;exitX=0;exitY=0.317;exitDx=0;exitDy=0;exitPerimeter=0;labelBackgroundColor=#FFFFFF;fontColor=#000000;fontSize=14;" parent="1" source="75" target="22" edge="1">
                    <mxGeometry relative="1" as="geometry">
                        <mxPoint x="1469" y="289.8480188679245" as="sourcePoint"/>
                        <mxPoint x="841" y="258.00367924528297" as="targetPoint"/>
                    </mxGeometry>
                </mxCell>
                <mxCell id="77" value="1" style="edgeLabel;html=1;align=center;verticalAlign=middle;resizable=0;points=[];fontSize=14;fontColor=#000000;labelBackgroundColor=none;" parent="76" vertex="1" connectable="0">
                    <mxGeometry x="-0.4205" relative="1" as="geometry">
                        <mxPoint x="-18" y="-18" as="offset"/>
                    </mxGeometry>
                </mxCell>
                <mxCell id="78" value="FXMLPrincipalController" style="swimlane;fontStyle=1;align=center;verticalAlign=top;childLayout=stackLayout;horizontal=1;startSize=26;horizontalStack=0;resizeParent=1;resizeParentMax=0;resizeLast=0;collapsible=1;marginBottom=0;fontColor=#ffffff;labelBackgroundColor=none;fillColor=#a20025;strokeColor=#6F0000;fontSize=14;" parent="1" vertex="1">
                    <mxGeometry x="37" y="170" width="408" height="420" as="geometry"/>
                </mxCell>
                <mxCell id="79" value="- nTableView : TableView&#10;- nTableColumn : TableColumn&lt;N,String&gt;&#10;- lnTableColumn : TableColumn&lt;N,String&gt;&#10;- nkTableColumn : TableColumn&lt;N,String&gt;&#10;- tTableColumn : TableColumn&lt;N,String&gt;&#10;- menuComboBox : ComboBox&lt;String&gt;&#10;- nLabel : Label&#10;- orgLabel : Label&#10;- telefonoTableView : TableView&lt;Telefono&gt;&#10;- emailTableView : TableView&lt;Email&gt;&#10;- direccionTableView : TableView&lt;Direccion&gt;&#10;&#10;&#10;" style="text;align=left;verticalAlign=top;spacingLeft=4;spacingRight=4;overflow=hidden;rotatable=0;points=[[0,0.5],[1,0.5]];portConstraint=eastwest;strokeColor=#6F0000;fontColor=#000000;fontSize=14;" parent="78" vertex="1">
                    <mxGeometry y="26" width="408" height="221" as="geometry"/>
                </mxCell>
                <mxCell id="80" value="+ muestraOriginalesTabla( ) : void&#10;+ columnReorder ( table : TableView, columns : TableColum&lt;S,T&gt;&#10;+ eventoTablaN ( ) : void&#10;+ actualizaLabelsOriginales( ) : void&#10;+ muestraOriginalesTabla( ) : void&#10;+ muestraOriginalesTablaEmail( ) : void&#10;+ muestraOriginalesTablaTel( ) : void&#10;+ duplicadosButtonAction( ) : void&#10;+ actualizaLabelsDuplicados( ) : void &#10;+ muestraDuplicadosTabla : void&#10;" style="text;align=left;verticalAlign=top;spacingLeft=4;spacingRight=4;overflow=hidden;rotatable=0;points=[[0,0.5],[1,0.5]];portConstraint=eastwest;fontColor=#000000;strokeColor=#660000;fontSize=14;" parent="78" vertex="1">
                    <mxGeometry y="247" width="408" height="173" as="geometry"/>
                </mxCell>
                <mxCell id="81" value="FXMLEditarController" style="swimlane;fontStyle=1;align=center;verticalAlign=top;childLayout=stackLayout;horizontal=1;startSize=26;horizontalStack=0;resizeParent=1;resizeParentMax=0;resizeLast=0;collapsible=1;marginBottom=0;fontColor=#ffffff;labelBackgroundColor=none;fillColor=#a20025;strokeColor=#6F0000;fontSize=14;" parent="1" vertex="1">
                    <mxGeometry x="274" y="668" width="237" height="103" as="geometry"/>
                </mxCell>
                <mxCell id="82" value=" " style="text;align=left;verticalAlign=top;spacingLeft=4;spacingRight=4;overflow=hidden;rotatable=0;points=[[0,0.5],[1,0.5]];portConstraint=eastwest;fontColor=#ffffff;strokeColor=#6F0000;fontSize=14;" parent="81" vertex="1">
                    <mxGeometry y="26" width="237" height="26" as="geometry"/>
                </mxCell>
                <mxCell id="83" value="+ initialize( url URL, rb ResourceBundle" style="text;align=left;verticalAlign=top;spacingLeft=4;spacingRight=4;overflow=hidden;rotatable=0;points=[[0,0.5],[1,0.5]];portConstraint=eastwest;fontColor=#000000;strokeColor=#660000;fontSize=14;" parent="81" vertex="1">
                    <mxGeometry y="52" width="237" height="51" as="geometry"/>
                </mxCell>
                <mxCell id="84" value="FXMLCargarArchivoController" style="swimlane;fontStyle=1;align=center;verticalAlign=top;childLayout=stackLayout;horizontal=1;startSize=26;horizontalStack=0;resizeParent=1;resizeParentMax=0;resizeLast=0;collapsible=1;marginBottom=0;fontColor=#ffffff;labelBackgroundColor=none;fillColor=#a20025;strokeColor=#6F0000;fontSize=14;" parent="1" vertex="1">
                    <mxGeometry x="363" y="15" width="239" height="142" as="geometry"/>
                </mxCell>
                <mxCell id="85" value="- msLabel : Label&#10;- cargarButton : Button&#10;- cargarBD : Button" style="text;align=left;verticalAlign=top;spacingLeft=4;spacingRight=4;overflow=hidden;rotatable=0;points=[[0,0.5],[1,0.5]];portConstraint=eastwest;strokeColor=#6F0000;fontColor=#000000;fontSize=14;" parent="84" vertex="1">
                    <mxGeometry y="26" width="239" height="65" as="geometry"/>
                </mxCell>
                <mxCell id="86" value="+ cargar (event : ActionEvent) : void&#10;+ cargarBD ( event : ActionEvent) : void" style="text;align=left;verticalAlign=top;spacingLeft=4;spacingRight=4;overflow=hidden;rotatable=0;points=[[0,0.5],[1,0.5]];portConstraint=eastwest;fontColor=#000000;strokeColor=#660000;fontSize=14;" parent="84" vertex="1">
                    <mxGeometry y="91" width="239" height="51" as="geometry"/>
                </mxCell>
                <mxCell id="87" style="rounded=0;orthogonalLoop=1;jettySize=auto;html=1;labelBackgroundColor=none;fontSize=14;fontColor=#000000;startArrow=none;startFill=0;endArrow=open;endFill=0;fillColor=#a20025;strokeColor=#6F0000;strokeWidth=3;dashed=1;" parent="1" source="86" edge="1">
                    <mxGeometry relative="1" as="geometry">
                        <mxPoint x="680.2857142857144" y="232.71428571428578" as="targetPoint"/>
                    </mxGeometry>
                </mxCell>
                <mxCell id="88" style="rounded=0;orthogonalLoop=1;jettySize=auto;html=1;entryX=0;entryY=0.5;entryDx=0;entryDy=0;labelBackgroundColor=none;fontSize=14;fontColor=#000000;startArrow=none;startFill=0;endArrow=open;endFill=0;fillColor=#a20025;strokeColor=#6F0000;strokeWidth=3;dashed=1;" parent="1" source="79" target="23" edge="1">
                    <mxGeometry relative="1" as="geometry"/>
                </mxCell>
                <mxCell id="89" style="rounded=0;orthogonalLoop=1;jettySize=auto;html=1;entryX=-0.023;entryY=0.7;entryDx=0;entryDy=0;entryPerimeter=0;labelBackgroundColor=none;fontSize=14;fontColor=#000000;startArrow=none;startFill=0;endArrow=open;endFill=0;fillColor=#a20025;strokeColor=#6F0000;strokeWidth=3;dashed=1;exitX=0.5;exitY=0;exitDx=0;exitDy=0;" parent="1" source="81" target="24" edge="1">
                    <mxGeometry relative="1" as="geometry">
                        <mxPoint x="357" y="631" as="sourcePoint"/>
                    </mxGeometry>
                </mxCell>
            </root>
        </mxGraphModel>
    </diagram>
</mxfile>